P3
# 8-bit ppm RGB
34 11
255
  0   0   0   9   9   9   0   0   0   0   0   0   0   0   0   0   0   0   0   0   0   0   0   0
  0   0   0   0   0   0   0   0   0   0   0   0   0   0   0   0   0   0   0   0   0   0   0   0
  0   0   0   0   0   0   0   0   0   0   0   0   0   0   0   0   0   0   0   0   0   0   0   0
  0   0   0   0   0   0   0   0   0   0   0   0   0   0   0   0   0   0   0   0   0   0   0   0
  9   9   9   0   0   0
  4   4   4   0   0   0  78  78  78 119 119 119 121 121 121 140 140 140 139 139 139 118 118 118
121 121 121  58  58  58  92  92  92 120 120 120 122 122 122 142 142 142 137 137 137 125 125 125
 70  70  70  78  78  78 121 121 121 121 121 121 141 141 141 137 137 137 118 118 118 119 119 119
 43  43  43  85  85  85 119 119 119 124 124 124 142 142 142 135 135 135 123 123 123  70  70  70
  0   0   0   9   9   9
 44  44  44   0   0   0 192 192 192 255 255 255 252 252 252 206 206 206 211 211 211 255 255 255
255 255 255 131 131 131 200 200 200 255 255 255 249 249 249 200 200 200 211 211 211 255 255 255
169 169 169 167 167 167 255 255 255 251 251 251 203 203 203 216 216 216 255 255 255 255 255 255
141 141 141 213 213 213 255 255 255 246 246 246 199 199 199 218 218 218 255 255 255 162 162 162
  0   0   0  32  32  32
  0   0   0  95  95  95 235 235 235 246 246 246  93  93  93 125 125 125 123 123 123 114 114 114
255 255 255 134 134 134 204 204 204 250 250 250  85  85  85 131 131 131 109 109 109 232 232 232
176 176 176 173 173 173 247 247 247  80  80  80 136 136 136 107 107 107 127 127 127 255 255 255
149 149 149 223 223 223 237 237 237  64  64  64 134 134 134 113 113 113 241 241 241 154 154 154
  0   0   0  39  39  39
  0   0   0 111 111 111 247 247 247 155 155 155 166 166 166 255 255 255 255 255 255 139 139 139
192 192 192 150 150 150 207 207 207 149 149 149 186 186 186 255 255 255 255 255 255 255 255 255
233 233 233 245 245 245 149 149 149 187 187 187 255 255 255 255 255 255 130 130 130 198 198 198
165 165 165 220 220 220 129 129 129 196 196 196 255 255 255 255 255 255 255 255 255 223 223 223
 74  74  74   0   0   0
 44  44  44   0   0   0 204 204 204 128 128 128 224 224 224 255 255 255 255 255 255 204 204 204
160 160 160 149 149 149 197 197 197 129 129 129 226 226 226 255 255 255 251 251 251 255 255 255
179 179 179 182 182 182 124 124 124 233 233 233 255 255 255 255 255 255 192 192 192 155 155 155
159 159 159 204 204 204 107 107 107 246 246 246 255 255 255 255 255 255 255 255 255 196 196 196
 21  21  21   0   0   0
 35  35  35   0   0   0 216 216 216 200 200 200  64  64  64 235 235 235 229 229 229  65  65  65
211 211 211 240 240 240 239 239 239  96  96  96 216 216 216 255 255 255 249 249 249 255 255 255
160 160 160 178 178 178 194 194 194  97  97  97 239 239 239 223 223 223   0   0   0 160 160 160
199 199 199 234 234 234 168 168 168 113 113 113 241 241 241 216 216 216 251 251 251 151 151 151
  0   0   0  37  37  37
 37  37  37   0   0   0 211 211 211 255 255 255 183 183 183 129 129 129 126 126 126 207 207 207
255 255 255 160 160 160 219 219 219 174 174 174 235 235 235 255 255 255 255 255 255 255 255 255
173 173 173 173 173 173 255 255 255 180 180 180 125 125 125 143 143 143 149 149 149 197 197 197
236 236 236 247 247 247 255 255 255 161 161 161 132 132 132 130 130 130 251 251 251 172 172 172
  0   0   0  34  34  34
 28  28  28   0   0   0 165 165 165 217 217 217 218 218 218 210 210 210 212 212 212 216 216 216
216 216 216  97  97  97 161 161 161 219 219 219 208 208 208 210 210 210 208 208 208 218 218 218
138 138 138 137 137 137 219 219 219 216 216 216 210 210 210 212 212 212 215 215 215 217 217 217
109 109 109 173 173 173 219 219 219 218 218 218 209 209 209 212 212 212 219 219 219 128 128 128
  0   0   0  25  25  25
  0   0   0  15  15  15   0   0   0   0   0   0   0   0   0   0   0   0   0   0   0   0   0   0
  0   0   0   0   0   0   0   0   0   0   0   0   0   0   0   0   0   0   0   0   0   0   0   0
  0   0   0   0   0   0   0   0   0   0   0   0   0   0   0   0   0   0   0   0   0   0   0   0
  0   0   0   0   0   0   0   0   0   0   0   0   0   0   0   0   0   0   0   0   0   0   0   0
 14  14  14   0   0   0
  1   1   1   0   0   0  25  25  25  36  36  36  35  35  35  33  33  33  33  33  33  35  35  35
 36  36  36  13  13  13  25  25  25  35  35  35  34  34  34  35  35  35  34  34  34  36  36  36
 19  19  19  19  19  19  37  37  37  34  34  34  33  33  33  33  33  33  34  34  34  35  35  35
 13  13  13  27  27  27  36  36  36  35  35  35  33  33  33  33  33  33  36  36  36  17  17  17
  0   0   0   1   1   1
